<?xml version="1.0" standalone="no"?>
<!DOCTYPE svg PUBLIC "-//W3C//DTD SVG 20010904//EN"
 "http://www.w3.org/TR/2001/REC-SVG-20010904/DTD/svg10.dtd">
<svg version="1.0" xmlns="http://www.w3.org/2000/svg"
 width="300.000000pt" height="171.000000pt" viewBox="0 0 300.000000 171.000000"
 preserveAspectRatio="xMidYMid meet">

<g transform="translate(0.000000,171.000000) scale(0.100000,-0.100000)"
fill="#000000" stroke="none">
<path d="M736 884 c-67 -21 -145 -100 -177 -179 -21 -55 -23 -75 -24 -240 0
-147 3 -189 18 -230 26 -75 83 -144 146 -177 l53 -28 742 0 c840 0 782 -5 864
84 81 88 87 112 87 347 l0 206 -35 69 c-40 78 -106 136 -176 153 -29 7 -275
11 -746 10 -595 0 -710 -3 -752 -15z m1505 -26 c59 -17 114 -70 151 -146 l33
-67 0 -175 c0 -112 -5 -190 -13 -217 -19 -64 -72 -134 -126 -168 l-49 -30
-741 0 -741 0 -41 22 c-50 27 -99 81 -127 142 -20 42 -22 62 -22 241 0 221 7
247 81 330 76 84 26 80 838 80 517 0 730 -3 757 -12z"/>
<path d="M1540 815 c-10 -12 -10 -15 3 -15 8 0 17 7 21 15 3 8 2 15 -3 15 -5
0 -14 -7 -21 -15z"/>
<path d="M1605 820 c-3 -5 1 -10 9 -10 8 0 18 5 21 10 3 6 -1 10 -9 10 -8 0
-18 -4 -21 -10z"/>
<path d="M1480 800 c-7 -13 -7 -20 -1 -20 6 0 15 9 21 20 7 13 7 20 1 20 -6 0
-15 -9 -21 -20z"/>
<path d="M1673 813 c-14 -5 -18 -23 -5 -23 5 0 17 7 28 15 14 11 15 14 4 14
-8 0 -21 -3 -27 -6z"/>
<path d="M1421 764 c-12 -27 -11 -28 4 -12 10 9 16 21 13 28 -2 7 -10 -1 -17
-16z"/>
<path d="M1590 780 c0 -5 -13 -7 -32 -3 -21 4 -29 3 -24 -5 3 -6 29 -11 57
-10 42 0 48 2 38 14 -13 16 -39 19 -39 4z"/>
<path d="M1720 780 c0 -5 9 -10 19 -10 11 0 23 5 26 10 4 6 -5 10 -19 10 -14
0 -26 -4 -26 -10z"/>
<path d="M1650 771 c0 -13 29 -35 37 -28 7 8 -15 37 -28 37 -5 0 -9 -4 -9 -9z"/>
<path d="M1485 760 c-8 -12 20 -24 35 -15 6 3 8 11 5 16 -8 12 -32 12 -40 -1z"/>
<path d="M1700 752 c0 -11 22 -32 32 -32 5 0 4 9 -2 20 -11 20 -30 28 -30 12z"/>
<path d="M1752 738 c3 -7 13 -15 24 -17 16 -3 17 -1 5 13 -16 19 -34 21 -29 4z"/>
<path d="M1435 730 c-3 -5 3 -10 14 -10 11 0 23 5 26 10 3 6 -3 10 -14 10 -11
0 -23 -4 -26 -10z"/>
<path d="M862 655 c-59 -26 -71 -50 -72 -142 0 -87 -6 -117 -22 -107 -5 4 -8
-5 -6 -21 9 -80 183 -100 254 -30 33 33 33 87 -2 122 l-25 25 22 24 c73 78
-42 178 -149 129z m62 -61 c26 -10 38 -41 26 -64 -11 -21 -44 -27 -55 -10 -3
6 -15 10 -26 10 -15 0 -19 7 -19 35 0 32 2 35 29 35 16 0 37 -3 45 -6z m17
-141 c20 -12 29 -24 27 -38 -4 -24 -55 -55 -66 -39 -4 7 -16 13 -27 15 -15 3
-21 13 -23 42 -3 36 -2 37 28 37 18 0 45 -8 61 -17z"/>
<path d="M1198 657 c-54 -25 -66 -54 -66 -157 0 -75 -3 -96 -16 -105 -19 -14
-21 -46 -4 -63 7 -7 27 -12 45 -12 l33 0 0 66 c0 62 1 65 23 62 15 -2 31 -19
49 -53 14 -27 31 -56 38 -62 12 -14 90 -18 90 -5 0 4 -18 40 -39 80 -31 58
-36 74 -25 79 20 7 44 56 44 87 0 14 -13 40 -28 57 -21 24 -38 32 -72 35 -25
2 -57 -2 -72 -9z m78 -83 c22 -33 9 -78 -24 -82 -12 -2 -22 1 -22 7 0 5 -9 13
-20 16 -16 5 -20 15 -20 46 0 38 1 39 35 39 26 0 39 -6 51 -26z"/>
<path d="M1555 642 c-51 -30 -95 -93 -95 -138 0 -12 -7 -30 -16 -38 -37 -37
37 -138 111 -152 82 -15 159 16 191 78 21 41 29 128 15 170 -6 19 -26 49 -45
67 -47 46 -95 50 -161 13z m95 -62 c11 -11 20 -24 20 -28 0 -5 9 -20 21 -33
35 -40 6 -132 -46 -145 -33 -8 -80 12 -105 44 -28 35 -27 120 1 156 26 33 79
36 109 6z"/>
<path d="M1875 659 c-4 -5 -9 -56 -12 -112 -2 -56 -9 -112 -16 -125 -27 -57
35 -112 128 -112 62 0 95 20 95 59 0 27 0 27 -59 23 -82 -6 -91 8 -91 150 0
96 -2 108 -19 118 -14 7 -22 7 -26 -1z"/>
<path d="M2156 633 c-3 -21 -6 -79 -6 -130 0 -70 -4 -95 -16 -107 -8 -9 -14
-28 -12 -43 3 -25 7 -28 46 -31 l42 -3 0 159 c0 141 -2 161 -18 175 -26 24
-29 22 -36 -20z"/>
<path d="M1399 258 c0 -7 -2 -25 -3 -40 -1 -16 2 -28 6 -28 4 0 6 18 6 40 0
37 -7 57 -9 28z"/>
<path d="M833 225 c0 -22 2 -30 4 -17 2 12 2 30 0 40 -3 9 -5 -1 -4 -23z"/>
<path d="M1216 242 c-3 -6 2 -9 12 -8 12 1 17 -6 16 -22 0 -16 2 -20 10 -12 7
7 7 16 0 27 -13 21 -30 27 -38 15z"/>
<path d="M1296 240 c7 -8 14 -24 17 -35 4 -19 5 -19 6 1 0 12 -7 28 -16 35
-16 12 -17 12 -7 -1z"/>
<path d="M1451 233 c7 -12 15 -20 18 -17 3 2 -3 12 -13 22 -17 16 -18 16 -5
-5z"/>
<path d="M1539 238 c7 -10 11 -25 7 -33 -3 -9 -2 -13 4 -10 15 10 12 31 -7 46
-16 13 -17 12 -4 -3z"/>
<path d="M1676 240 c7 -8 14 -24 17 -35 4 -19 5 -19 6 1 0 12 -7 28 -16 35
-16 12 -17 12 -7 -1z"/>
<path d="M1806 242 c-3 -6 2 -9 12 -8 12 1 17 -6 16 -22 0 -16 2 -20 10 -12 7
7 7 16 0 27 -13 21 -30 27 -38 15z"/>
<path d="M2023 243 c-7 -2 -12 -17 -12 -31 1 -21 2 -23 6 -7 3 11 10 26 15 33
11 13 10 13 -9 5z"/>
<path d="M872 220 c0 -14 2 -19 5 -12 2 6 2 18 0 25 -3 6 -5 1 -5 -13z"/>
<path d="M908 215 c-3 -14 -1 -25 3 -25 5 0 9 11 9 25 0 14 -2 25 -4 25 -2 0
-6 -11 -8 -25z"/>
<path d="M961 198 c0 -31 3 -37 8 -24 7 18 3 66 -5 66 -2 0 -4 -19 -3 -42z"/>
<path d="M1002 215 c0 -16 2 -22 5 -12 2 9 2 23 0 30 -3 6 -5 -1 -5 -18z"/>
<path d="M1272 215 c0 -16 2 -22 5 -12 2 9 2 23 0 30 -3 6 -5 -1 -5 -18z"/>
<path d="M1422 215 c0 -16 2 -22 5 -12 2 9 2 23 0 30 -3 6 -5 -1 -5 -18z"/>
<path d="M1572 215 c0 -16 2 -22 5 -12 2 9 2 23 0 30 -3 6 -5 -1 -5 -18z"/>
<path d="M1592 215 c0 -16 2 -22 5 -12 2 9 2 23 0 30 -3 6 -5 -1 -5 -18z"/>
<path d="M1652 215 c0 -16 2 -22 5 -12 2 9 2 23 0 30 -3 6 -5 -1 -5 -18z"/>
<path d="M1742 215 c0 -16 2 -22 5 -12 2 9 2 23 0 30 -3 6 -5 -1 -5 -18z"/>
<path d="M1862 215 c0 -16 2 -22 5 -12 2 9 2 23 0 30 -3 6 -5 -1 -5 -18z"/>
<path d="M1922 215 c0 -16 2 -22 5 -12 2 9 2 23 0 30 -3 6 -5 -1 -5 -18z"/>
<path d="M1992 215 c0 -16 2 -22 5 -12 2 9 2 23 0 30 -3 6 -5 -1 -5 -18z"/>
<path d="M1020 216 c0 -8 4 -17 9 -20 5 -4 7 3 4 14 -6 23 -13 26 -13 6z"/>
<path d="M1097 219 c7 -7 15 -10 18 -7 3 3 -2 9 -12 12 -14 6 -15 5 -6 -5z"/>
<path d="M1152 217 c10 -8 14 -18 10 -22 -4 -5 -1 -5 6 -1 17 10 15 14 -10 26
-21 10 -21 10 -6 -3z"/>
</g>
</svg>
